<svg width="24" height="24" viewBox="0 0 24 24" fill="none" xmlns="http://www.w3.org/2000/svg">
<path d="M19.2087 16.5347L20.0739 16.4329C19.3321 15.5579 18.571 14.949 17.8862 14.5305L18.6472 14.1118L16.7064 13.0082L18.0191 12.3804L15.736 11.0677L16.7064 10.4399L14.5698 9.69212C14.774 9.44592 14.8534 9.19234 14.8489 8.95669L19.0499 5.79589C19.1602 5.71285 19.1885 5.55852 19.1153 5.44155L18.988 5.23955C18.9099 5.11471 18.7459 5.07737 18.6211 5.15528L16.6243 6.408L16.4901 7.08054L16.2633 5.22949C15.8491 4.75031 15.6013 5.17025 15.6013 5.17025L15.6073 7.09182L14.2361 8.01088C14.0164 7.90446 13.7786 7.89342 13.5962 8.02807L12.2806 8.87484C12.2806 8.87484 10.8087 8.44235 9.89535 9.08909C9.62626 9.27977 9.28669 9.69803 7.76467 9.4314C7.60643 9.40363 6.5972 9.29528 5.68433 9.03308C5.65041 8.60748 5.29804 8.27132 4.86361 8.27132C4.74812 8.27132 4.63826 8.29515 4.53827 8.33818C3.7706 7.01223 2.41789 8.00866 3.27451 9.50759L3.69741 10.3802L3.95345 10.4952L4.22718 10.618C4.22324 11.0547 4.29257 11.986 4.91325 12.4089C4.8808 12.3126 5.01376 11.5862 5.24056 11.0729L5.34673 11.1206L5.77331 11.3073C5.79641 11.7616 5.91879 12.4509 6.41959 12.7925C6.3928 12.7114 6.48864 12.16 6.6609 11.6961L7.4998 12.0634C7.56888 12.463 7.73078 12.9095 8.10333 13.1636C8.08269 13.1007 8.13574 12.7556 8.24044 12.3878L9.53443 12.9547C9.58112 12.9756 9.61378 13.0198 9.62043 13.0705L9.64795 13.5224C9.65752 13.5968 9.61013 13.6664 9.53689 13.6845L7.9871 14.4692C7.73964 14.1654 7.5288 13.7851 7.52782 13.718C7.29684 14.0301 7.30764 14.4463 7.37299 14.78L6.73069 15.1054C6.43313 14.7304 6.16699 14.1642 6.1729 14.0782C5.82053 14.4842 5.86598 15.1005 5.94783 15.5015L5.54114 15.7076C5.54114 15.7076 5.64211 15.8698 5.82274 16.1342C6.05889 16.4809 6.43829 17.1466 6.60293 17.2759C6.93171 17.5332 7.38825 17.8116 7.38825 17.8116L7.1327 16.8672L7.85955 17.1179V16.547C12.6124 15.0845 13.787 18.6072 14.2271 19.8653H21C20.6993 19.0831 19.5773 17.0541 19.2087 16.5347Z" fill="#4B4B4B"/>
</svg>
