<svg width="24" height="24" viewBox="0 0 24 24" fill="none" xmlns="http://www.w3.org/2000/svg">
<path d="M15.8407 16.7132C15.5194 16.3924 15.0085 16.3534 15.8204 15.0905C16.6323 13.827 17.8957 11.6633 17.8957 9.22543C17.8957 6.33766 15.6847 3 11.6247 3C7.56475 3 5.3543 6.33766 5.3543 9.2254C5.3543 11.6633 6.61719 13.827 7.42909 15.0904C8.24098 16.3533 7.73013 16.3923 7.40877 16.7131C7.08796 17.035 5 17.6272 5 19.7151C5 19.7151 6.80672 21 11.6248 21C16.4428 21 18.2495 19.7151 18.2495 19.7151C18.2495 17.6272 16.1615 17.035 15.8407 16.7132ZM8.71665 11.1387C7.41256 10.7322 7.60483 8.99963 7.60483 8.99963C7.60483 8.99963 9.74388 9.83402 10.6848 9.89832C10.6848 9.89832 10.252 11.6171 8.71665 11.1387ZM11.4462 14.7312C10.3849 14.6603 10.208 13.1042 10.208 13.1042C10.4909 13.4404 11.906 14.0764 13.0914 12.9976C12.9673 14.4483 12.1719 14.7796 11.4462 14.7312ZM14.4339 11.1387C12.8992 11.6171 12.4657 9.89832 12.4657 9.89832C13.4073 9.83406 15.5458 8.99963 15.5458 8.99963C15.5458 8.99963 15.7386 10.7322 14.4339 11.1387Z" fill="#4B4B4B"/>
</svg>
