<svg width="24" height="24" viewBox="0 0 24 24" fill="none" xmlns="http://www.w3.org/2000/svg">
<path d="M17.7631 5.0468C14.4211 4.56956 12.5201 7.87453 12.0001 8.93786C11.4797 7.87453 9.57839 4.56956 6.23704 5.0468C3.15742 5.48671 2.35811 8.69272 3.48754 10.6553C4.53235 12.4698 6.12693 13.4045 8.60091 13.7888C5.63179 14.7788 4.39573 17.2308 6.45669 19.0676C8.77968 21.1381 11.2863 19.405 12.0001 16.803C12.7129 19.405 15.2204 21.1381 17.5428 19.0676C19.6037 17.2308 18.368 14.7788 15.3989 13.7888C17.8729 13.4045 19.4678 12.4698 20.5126 10.6553C21.642 8.69272 20.842 5.48671 17.7631 5.0468Z" fill="#4B4B4B"/>
</svg>
