<svg width="24" height="24" viewBox="0 0 24 24" fill="none" xmlns="http://www.w3.org/2000/svg">
<path d="M20.8725 18.2372C20.8725 18.2372 19.2342 16.86 18.0778 8.50824C17.7672 5.41508 15.1649 3 12 3C8.83542 3 6.23277 5.41505 5.92224 8.5082C4.76577 16.86 3.1275 18.2372 3.1275 18.2372C2.59639 19.1255 3.85639 19.2312 4.48801 19.2228C5.7274 19.206 5.7274 20.6443 6.96708 20.6443C8.20648 20.6443 8.20648 19.4004 9.44587 19.4004C10.6853 19.4004 10.7606 21 12 21C13.2394 21 13.3144 19.4004 14.5541 19.4004C15.7935 19.4004 15.7935 20.6443 17.0329 20.6443C18.2723 20.6443 18.2729 19.206 19.5123 19.2228C20.1436 19.2312 21.4036 19.1255 20.8725 18.2372ZM10.3395 10.9075C9.89946 10.9075 9.54234 10.5494 9.54234 10.1076C9.54234 9.66595 9.89946 9.30816 10.3395 9.30816C10.7796 9.30816 11.1362 9.66595 11.1362 10.1076C11.1362 10.5494 10.7796 10.9075 10.3395 10.9075ZM13.476 10.9075C13.0356 10.9075 12.679 10.5494 12.679 10.1076C12.679 9.66595 13.0356 9.30816 13.476 9.30816C13.9157 9.30816 14.2729 9.66595 14.2729 10.1076C14.2729 10.5494 13.9157 10.9075 13.476 10.9075Z" fill="#4B4B4B"/>
</svg>
