<svg width="24" height="24" viewBox="0 0 24 24" fill="none" xmlns="http://www.w3.org/2000/svg">
<path d="M15.9602 10.5393C16.4922 9.76519 16.8072 8.82771 16.8072 7.81802C16.8065 5.15691 14.6499 3.00035 11.9888 3C9.32768 3.00035 7.17109 5.15691 7.17109 7.81802C7.17109 8.82768 7.48609 9.76515 8.01737 10.5393C6.78353 11.6342 6 13.2298 6 15.0112C6 18.319 8.68137 21 11.9888 21C15.2969 21 17.9776 18.319 17.9782 15.0112C17.9782 13.2298 17.194 11.6342 15.9602 10.5393ZM9.61392 6.74562C9.61392 6.40024 9.89429 6.12019 10.2394 6.12019C10.585 6.12019 10.8647 6.40024 10.8647 6.74562C10.8647 7.09099 10.585 7.3707 10.2394 7.3707C9.89429 7.3707 9.61392 7.09099 9.61392 6.74562ZM10.4158 8.45846C10.3785 8.28237 10.4733 8.10458 10.6445 8.04253L11.7711 7.63539C12.3711 7.91576 12.0711 8.51566 12.0711 8.51566L10.8131 8.70681C10.636 8.7336 10.47 8.62676 10.4158 8.45846ZM11.877 18.3131C11.5228 18.3131 11.2359 18.0262 11.2359 17.672C11.2359 17.3181 11.5228 17.0309 11.877 17.0309C12.2313 17.0309 12.5181 17.3182 12.5181 17.672C12.5181 18.0262 12.2312 18.3131 11.877 18.3131ZM11.877 15.636C11.5228 15.636 11.2359 15.3494 11.2359 14.9949C11.2359 14.641 11.5228 14.3538 11.877 14.3538C12.2313 14.3538 12.5181 14.641 12.5181 14.9949C12.5181 15.3494 12.2312 15.636 11.877 15.636ZM11.877 12.9589C11.5228 12.9589 11.2359 12.672 11.2359 12.3178C11.2359 11.9639 11.5228 11.6767 11.877 11.6767C12.2313 11.6767 12.5181 11.9639 12.5181 12.3178C12.5181 12.672 12.2312 12.9589 11.877 12.9589ZM13.5435 7.3707C13.1985 7.3707 12.9181 7.09099 12.9181 6.74562C12.9181 6.40024 13.1985 6.12019 13.5435 6.12019C13.8892 6.12019 14.1689 6.40024 14.1689 6.74562C14.1689 7.09099 13.8892 7.3707 13.5435 7.3707Z" fill="#4B4B4B"/>
</svg>
