<svg width="24" height="24" viewBox="0 0 24 24" fill="none" xmlns="http://www.w3.org/2000/svg">
<path d="M16.0154 20.3606C15.6117 20.3606 15.209 20.2606 14.8509 20.0728L12.1158 18.6352C12.045 18.5973 11.956 18.5973 11.8846 18.6352L9.14952 20.0728C8.79191 20.2606 8.38926 20.3606 7.98553 20.3606C7.45323 20.3606 6.94459 20.1947 6.51445 19.8827C5.73936 19.3185 5.3576 18.3814 5.51854 17.4366L6.04206 14.3895C6.0558 14.3093 6.02887 14.228 5.97009 14.1704L3.75743 12.0137C3.07079 11.3441 2.82797 10.3614 3.12405 9.44899C3.42123 8.53602 4.19576 7.88345 5.14445 7.74609L8.20248 7.30168C8.28323 7.29015 8.35298 7.2396 8.38926 7.16602L9.75705 4.39472C10.1806 3.53504 11.0403 3 12.0005 3C12.9601 3 13.8198 3.53504 14.2439 4.39528L15.6117 7.16605C15.6479 7.23967 15.7177 7.29019 15.7985 7.30172L18.856 7.74613C19.8052 7.88345 20.5792 8.53605 20.8758 9.4479C21.1725 10.3614 20.9296 11.3442 20.243 12.0137L18.0298 14.1709C17.9716 14.228 17.9452 14.3093 17.9589 14.3906L18.4813 17.4355C18.6428 18.3819 18.261 19.3191 17.4854 19.8827C17.0558 20.1947 16.5477 20.3606 16.0154 20.3606ZM12.0005 16.3517C12.4042 16.3517 12.8069 16.4517 13.1645 16.6396L15.9001 18.0777C15.9687 18.1139 16.0478 18.1414 16.1599 18.059C16.2374 18.003 16.2753 17.9096 16.2588 17.8162L15.737 14.7708C15.598 13.9589 15.8671 13.1316 16.456 12.5571L18.6692 10.3993C18.7373 10.3334 18.7609 10.2356 18.7318 10.1445C18.7032 10.0566 18.6247 9.99064 18.5324 9.97746L15.4738 9.53252C14.6581 9.41387 13.9539 8.90189 13.5896 8.16361L12.2219 5.39284C12.1378 5.22202 11.8626 5.22254 11.7786 5.39175L10.4108 8.16414C10.0466 8.90186 9.34235 9.41384 8.52771 9.53249L5.46855 9.9769C5.3757 9.99064 5.29717 10.0566 5.26806 10.1455C5.23895 10.2356 5.2631 10.3334 5.33123 10.3993L7.54442 12.5565C8.13385 13.1316 8.40245 13.9589 8.26404 14.7702L7.74109 17.8173C7.72516 17.9096 7.76306 18.003 7.83998 18.059C7.95315 18.1408 8.03169 18.114 8.10091 18.0777L10.836 16.6396C11.1935 16.4517 11.5962 16.3517 12.0005 16.3517Z" fill="#4B4B4B"/>
</svg>
