<svg width="24" height="24" viewBox="0 0 24 24" fill="none" xmlns="http://www.w3.org/2000/svg">
<g clip-path="url(#clip0_605_52)">
<path d="M20.4188 11.5067C16.4253 11.5067 15.0443 10.5048 14.2698 9.73024C13.4953 8.95241 12.4917 7.57362 12.4917 3.58064C12.4917 3.42848 12.4757 3 11.9989 3C11.5265 3 11.5078 3.42848 11.5078 3.58064C11.5078 7.57362 10.5036 8.95241 9.72912 9.73024C8.95238 10.5048 7.5714 11.5067 3.58008 11.5067C3.42736 11.5067 3 11.5243 3 12.0006C3 12.4735 3.42736 12.4906 3.58008 12.4906C7.5714 12.4906 8.95241 13.4953 9.72912 14.2704C10.5037 15.0454 11.5078 16.4269 11.5078 20.4199C11.5078 20.5726 11.5265 21 11.9989 21C12.4757 21 12.4917 20.5726 12.4917 20.4199C12.4917 16.4269 13.4953 15.0454 14.2698 14.2703C15.0443 13.4941 16.4253 12.4905 20.4188 12.4905C20.571 12.4905 21 12.4757 21 11.9989C21 11.526 20.571 11.5067 20.4188 11.5067Z" fill="#4B4B4B"/>
</g>
<defs>
<clipPath id="clip0_605_52">
<rect width="18" height="18" fill="white" transform="translate(3 3)"/>
</clipPath>
</defs>
</svg>
